<?xml version="1.0" encoding="UTF-8" standalone="no"?>
<!-- Created with Inkscape (http://www.inkscape.org/) -->

<svg
   version="1.1"
   id="svg916"
   width="748.66669"
   height="748.66669"
   viewBox="0 0 748.66669 748.66669"
   sodipodi:docname="VerbGuc.svg"
   inkscape:version="1.1 (c68e22c387, 2021-05-23)"
   xmlns:inkscape="http://www.inkscape.org/namespaces/inkscape"
   xmlns:sodipodi="http://sodipodi.sourceforge.net/DTD/sodipodi-0.dtd"
   xmlns="http://www.w3.org/2000/svg"
   xmlns:svg="http://www.w3.org/2000/svg">
  <defs
     id="defs920">
    <inkscape:path-effect
       effect="fill_between_many"
       method="originald"
       linkedpaths="#path1001,0,1|#rect1444,0,1"
       id="path-effect1656" />
  </defs>
  <sodipodi:namedview
     id="namedview918"
     pagecolor="#ffffff"
     bordercolor="#666666"
     borderopacity="1.0"
     inkscape:pageshadow="2"
     inkscape:pageopacity="0.0"
     inkscape:pagecheckerboard="0"
     showgrid="false"
     inkscape:zoom="1.005788"
     inkscape:cx="373.83622"
     inkscape:cy="373.83622"
     inkscape:window-width="2256"
     inkscape:window-height="1408"
     inkscape:window-x="-11"
     inkscape:window-y="-11"
     inkscape:window-maximized="1"
     inkscape:current-layer="g922" />
  <g
     inkscape:groupmode="layer"
     inkscape:label="Image"
     id="g922">
    <path
       inkscape:original-d="M 0,0"
       inkscape:path-effect="#path-effect1656"
       d="m 364.00001,71.667336 c -83.928,6.854 -140.006,84.070664 -157.10334,160.999334 -4.276,19.23867 -6.13733,38.37334 -7.34133,58.00001 -0.46067,7.516 1.37933,16.01333 -0.156,23.33333 -1.216,5.79533 -6.12867,10.64133 -9.46133,15.33333 -5.89867,8.306 -11.324,16.97134 -16.05067,26 -14.226,27.17467 -22.85734,56.77467 -25.49734,87.33334 -8.88866,102.89867 56.38867,201.14001 154.27668,233.73334 28.90133,9.62667 59.68866,13.04667 90,10.65333 22.62267,-1.78 44.95333,-7.02666 66,-15.50666 97.33534,-39.23534 154.85334,-142.31734 139.11267,-245.54668 -4.102,-26.90266 -13.348,-53.01867 -26.76667,-76.66667 -4.44733,-7.83733 -9.34333,-15.41733 -14.698,-22.66666 -3.184,-4.31067 -7.60866,-8.672 -8.964,-14 -2.294,-9.01934 -0.42333,-21.246 -0.74533,-30.66667 -0.556,-16.28734 -3.02467,-32.81 -6.72733,-48.66667 C 520.91268,152.10867 457.04868,64.068535 364.00001,71.667336 Z"
       id="path1658"
       style="fill:#a5f0a2;fill-opacity:1" />
    <path
       style="fill:#4b3002;stroke:none;stroke-width:0.666667"
       d="m 364.00001,71.667336 c -83.928,6.854 -140.006,84.070664 -157.10334,160.999334 -4.276,19.23867 -6.13733,38.37334 -7.34133,58.00001 -0.46067,7.516 1.37933,16.01333 -0.156,23.33333 -1.216,5.79533 -6.12867,10.64133 -9.46133,15.33333 -5.89867,8.306 -11.324,16.97134 -16.05067,26 -14.226,27.17467 -22.85734,56.77467 -25.49734,87.33334 -8.88866,102.89867 56.38867,201.14001 154.27668,233.73334 28.90133,9.62667 59.68866,13.04667 90,10.65333 22.62267,-1.78 44.95333,-7.02666 66,-15.50666 97.33534,-39.23534 154.85334,-142.31734 139.11267,-245.54668 -4.102,-26.90266 -13.348,-53.01867 -26.76667,-76.66667 -4.44733,-7.83733 -9.34333,-15.41733 -14.698,-22.66666 -3.184,-4.31067 -7.60866,-8.672 -8.964,-14 -2.294,-9.01934 -0.42333,-21.246 -0.74533,-30.66667 -0.556,-16.28734 -3.02467,-32.81 -6.72733,-48.66667 C 520.91268,152.10867 457.04868,64.068535 364.00001,71.667336 m -2.66667,15.966667 c 87.64601,-7.536667 147.63001,72.727337 164.88534,150.366007 3.43867,15.47266 6.012,31.45867 6.40067,47.33333 0.252,10.27667 -1.89067,22.43134 0.52333,32.44467 1.256,5.20733 5.84667,9.442 9.024,13.556 5.262,6.81267 10.14334,13.92267 14.52667,21.33267 13.366,22.59333 22.38133,47.482 26.83467,73.33333 20.758,120.51067 -69.68667,236.92801 -191.52801,247.00001 -23.906,1.98 -48.092,0.0533 -71.33333,-6.01333 -101.49134,-26.488 -169.13534,-125.65801 -157.59001,-229.65334 3.07534,-27.70267 11.70734,-55.00734 25.33934,-79.33334 4.66333,-8.32133 9.82133,-16.36067 15.53533,-24 3.49333,-4.67067 8.44667,-9.424 9.63133,-15.33333 1.43334,-7.14934 -0.40933,-14.76934 -0.12933,-22 0.66133,-17.036 2.05533,-33.89667 5.23867,-50.66667 13.592,-71.60934 63.182,-151.53334 142.64133,-158.366007 m 8.66667,226.016007 c -24.81733,1.62333 -48.31267,7.56 -70,20.06 -16.56733,9.54867 -31.164,22.49867 -42.82934,37.62333 -49.78466,64.55001 -36.94,160.40268 28.16267,209.54468 12.84267,9.69333 27.35867,17.36 42.66667,22.348 18.01,5.868 37.07733,8.418 56,7.25267 21.38667,-1.31734 42.42934,-7.33334 61.33334,-17.39334 15.97466,-8.50067 30.268,-20.08333 42.11133,-33.752 53.96,-62.27733 45.318,-160.71067 -18.778,-212.56401 -13.85067,-11.20533 -29.75267,-19.968 -46.66667,-25.58333 -16.34133,-5.426 -34.74266,-8.66533 -52,-7.536 z"
       id="path1001"
       sodipodi:nodetypes="ccccccccccccsccccccccccccccccccccccccccccccc" />
  </g>
</svg>
